<?xml version="1.0" encoding="UTF-8" standalone="no"?>
<!DOCTYPE svg PUBLIC "-//W3C//DTD SVG 1.1//EN" "http://www.w3.org/Graphics/SVG/1.1/DTD/svg11.dtd">
<svg width="100%" height="100%" viewBox="0 0 1242 578" version="1.1" xmlns="http://www.w3.org/2000/svg" xmlns:xlink="http://www.w3.org/1999/xlink" xml:space="preserve" xmlns:serif="http://www.serif.com/" style="fill-rule:evenodd;clip-rule:evenodd;stroke-linejoin:round;stroke-miterlimit:2;">
    <g id="Apperta">
        <path d="M52.331,347.64l34.866,0l-17.445,-104.642l-17.421,104.642Zm-52.331,87.217l52.331,-244.17l34.866,0l52.331,244.17l-34.886,-0l-13.078,-61.041l-43.601,-0l-13.077,61.036l-34.886,-0m212.98,-26.17c3.711,-0 6.833,-1.358 9.323,-4.079c2.485,-2.74 4.304,-6.607 5.456,-11.661c1.127,-5.034 1.897,-10.034 2.299,-14.989c0.421,-4.941 0.632,-10.745 0.632,-17.367l-0.27,-23.038c0,-4.079 -0.039,-7.373 -0.078,-9.858c-0.091,-3.323 -0.25,-6.643 -0.475,-9.96c-0.27,-4.132 -0.652,-7.5 -1.172,-10.147c-0.579,-2.944 -1.327,-5.852 -2.24,-8.71c-0.995,-3.181 -2.201,-5.686 -3.598,-7.509c-1.5,-1.884 -3.354,-3.457 -5.456,-4.633c-2.31,-1.286 -4.919,-1.94 -7.563,-1.897c-1.301,-0.01 -2.6,0.08 -3.887,0.27c-1.225,0.172 -2.49,0.48 -3.814,0.882c-1.323,0.402 -2.411,0.765 -3.274,1.089c-1.143,0.452 -2.256,0.976 -3.333,1.568c-1.373,0.735 -2.353,1.25 -2.926,1.574c-0.594,0.308 -1.608,0.921 -3.084,1.838c-1.436,0.902 -2.352,1.456 -2.72,1.627l-0,107.917c8.004,4.73 16.715,7.083 26.175,7.083l0.005,-0Zm-61.071,78.486l0,-226.724l34.886,-0l0,17.445c2.819,-3.01 4.769,-5.059 5.863,-6.147c1.088,-1.078 2.965,-2.76 5.666,-5.039c2.681,-2.255 4.98,-3.848 6.951,-4.764c1.95,-0.902 4.441,-1.785 7.484,-2.662c3.086,-0.865 6.276,-1.297 9.48,-1.284c5.897,-0 11.162,1.073 15.794,3.196c4.637,2.147 8.445,4.691 11.45,7.695c2.99,3.01 5.539,7.299 7.622,12.872c2.089,5.588 3.657,10.661 4.711,15.2c1.034,4.539 1.838,10.686 2.372,18.402c0.559,7.715 0.863,13.96 0.961,18.724c0.098,4.77 0.133,11.338 0.133,19.685l-0,2.603c-0,7.622 -0.383,14.995 -1.147,22.078c-0.823,7.295 -2.239,14.512 -4.236,21.577c-2.049,7.318 -4.632,13.656 -7.754,19.019c-3.087,5.308 -7.384,9.814 -12.539,13.151c-5.23,3.407 -11.2,5.113 -17.92,5.113c-11.814,-0 -23.441,-6.049 -34.891,-18.137l0,67.997l-34.886,0m191.957,-78.486c3.716,-0 6.838,-1.358 9.328,-4.079c2.505,-2.74 4.309,-6.607 5.456,-11.661c1.127,-5.034 1.897,-10.034 2.318,-14.989c0.402,-4.941 0.613,-10.745 0.613,-17.367l-0.27,-23.038c0,-4.079 -0.019,-7.373 -0.078,-9.858c-0.072,-3.323 -0.231,-6.645 -0.476,-9.96c-0.184,-3.402 -0.569,-6.79 -1.152,-10.147c-0.584,-2.944 -1.337,-5.852 -2.254,-8.71c-1,-3.181 -2.206,-5.686 -3.603,-7.509c-1.501,-1.884 -3.354,-3.457 -5.456,-4.633c-2.31,-1.286 -4.919,-1.94 -7.563,-1.897c-1.301,-0.01 -2.6,0.08 -3.887,0.27c-1.226,0.172 -2.49,0.48 -3.814,0.882c-1.323,0.402 -2.411,0.765 -3.274,1.089c-1.143,0.452 -2.256,0.976 -3.333,1.568l-2.927,1.574c-1.043,0.575 -2.065,1.188 -3.063,1.838c-0.887,0.574 -1.795,1.117 -2.721,1.627l0,107.917c7.99,4.73 16.701,7.083 26.156,7.083Zm-61.036,78.486l-0,-226.724l34.885,-0l0,17.445c2.819,-3.01 4.755,-5.059 5.863,-6.147c1.068,-1.078 2.965,-2.76 5.647,-5.039c2.681,-2.255 4.999,-3.848 6.95,-4.764c1.951,-0.902 4.441,-1.785 7.485,-2.662c3.085,-0.865 6.276,-1.297 9.48,-1.284c5.897,-0 11.161,1.073 15.798,3.196c4.632,2.147 8.441,4.691 11.451,7.695c3.005,3.01 5.529,7.299 7.617,12.872c2.108,5.588 3.657,10.661 4.711,15.2c1.053,4.539 1.838,10.686 2.377,18.402c0.554,7.715 0.882,13.96 0.956,18.724c0.098,4.77 0.132,11.338 0.132,19.685l0,2.603c0,7.622 -0.382,14.995 -1.147,22.078c-0.821,7.295 -2.236,14.512 -4.23,21.577c-2.049,7.318 -4.637,13.656 -7.755,19.019c-3.09,5.309 -7.389,9.815 -12.548,13.151c-5.22,3.407 -11.196,5.113 -17.916,5.113c-11.798,-0 -23.44,-6.049 -34.871,-18.137l0,67.997l-34.885,0m164.355,-156.968l34.621,-0l-0,-10.495c-0.054,-4.052 -0.329,-8.099 -0.824,-12.122c-0.473,-3.517 -1.267,-6.984 -2.372,-10.357c-1.152,-3.446 -2.892,-6.088 -5.245,-7.892c-2.378,-1.813 -5.289,-2.735 -8.735,-2.735c-3.544,0 -6.51,0.956 -8.921,2.873c-2.412,1.892 -4.177,4.651 -5.304,8.234c-1.121,3.442 -1.923,6.98 -2.397,10.569c-0.502,4.11 -0.777,8.245 -0.823,12.386l-0,9.539Zm17.175,107.103c-8.44,-0 -15.773,-1.451 -22.018,-4.363c-6.225,-2.907 -11.162,-6.7 -14.838,-11.372c-3.676,-4.691 -6.666,-10.686 -8.921,-17.999c-2.244,-7.147 -3.821,-14.487 -4.711,-21.925c-0.862,-7.314 -1.382,-15.833 -1.568,-25.538c-0.268,-7.632 -0.268,-15.27 -0,-22.901c0.284,-9.098 0.897,-17.156 1.833,-24.185c0.947,-6.99 2.616,-13.863 4.98,-20.509c2.353,-6.622 5.441,-12.078 9.211,-16.347c3.774,-4.275 8.71,-7.696 14.837,-10.284c6.127,-2.603 13.289,-3.887 21.47,-3.887c7.445,-0 14.009,0.98 19.68,2.931c5.686,1.951 10.416,4.902 14.166,8.843c3.742,3.917 6.908,8.347 9.402,13.156c2.509,4.823 4.387,10.646 5.671,17.499c1.234,6.698 2.123,13.455 2.662,20.244c0.519,7.619 0.767,15.254 0.745,22.891l-0,4.083l-69.776,0l-0,14.318c-0.173,3.471 -0.191,6.949 -0.054,10.421c0.132,3.579 0.284,7.108 0.475,10.549c0.155,3.337 0.656,6.649 1.495,9.882c0.804,3.137 1.819,5.897 2.99,8.249c1.186,2.353 2.833,4.216 4.976,5.593c2.127,1.358 4.656,2.03 7.563,2.03c3.637,-0 6.627,-0.706 8.999,-2.108c2.353,-1.397 4.098,-3.52 5.245,-6.338c1.108,-2.715 1.906,-5.547 2.378,-8.441c0.455,-2.813 0.725,-6.357 0.823,-10.627l0,-7.352l34.597,-0l-0,6.931c-0.804,18.626 -5.397,32.704 -13.745,42.238c-8.367,9.534 -21.22,14.323 -38.567,14.323m68.188,-2.456l0,-174.404l34.886,0l-0,23.303c3.539,-6.911 8.691,-12.926 15.47,-18.058c6.759,-5.132 14.283,-7.695 22.557,-7.695c0.265,-0 2.123,0.171 5.569,0.539l-0,38.557c-6.431,-2.549 -12.887,-3.809 -19.338,-3.809c-7.274,0 -13.136,2.181 -17.577,6.529c-4.441,4.363 -6.681,10.132 -6.681,17.308l-0,117.74l-34.886,-0m142.837,2.441c-13.725,-0 -23.686,-3.5 -29.906,-10.49c-6.225,-6.985 -9.421,-17.578 -9.612,-31.744l-0,-108.475l-17.445,0l-0,-26.146l17.445,0l-0,-61.046l34.885,0l0,61.042l26.156,-0l0,26.155l-26.156,0l0,101.784c0,6.99 0.956,12.122 2.853,15.397c1.912,3.274 5.784,4.902 11.583,4.902c2.549,-0 6.456,-0.442 11.715,-1.358l0,28.337c-8.71,1.093 -15.886,1.647 -21.518,1.647m87.157,-28.626c2.451,-0 4.848,-0.726 7.142,-2.182c2.319,-1.436 4.078,-2.853 5.245,-4.215c1.191,-1.373 2.647,-3.177 4.367,-5.456c0.19,-0.346 0.423,-0.667 0.691,-0.956l0,-48.233c-1.455,0.995 -3.872,2.549 -7.239,4.632c-3.348,2.089 -6.03,3.794 -8.02,5.113c-2.009,1.323 -4.426,3.137 -7.24,5.46c-2.793,2.314 -4.975,4.535 -6.529,6.662c-1.549,2.142 -2.911,4.75 -4.097,7.833c-1.172,3.094 -1.77,6.377 -1.765,9.686c-0,14.435 5.804,21.656 17.45,21.656l-0.005,-0Zm-17.44,28.626c-9.73,-0 -17.96,-4.216 -24.72,-12.617c-6.779,-8.407 -10.166,-17.867 -10.166,-28.396c0,-8.465 1.436,-16.127 4.309,-23.038c2.853,-6.912 5.877,-12.426 9.034,-16.539c3.201,-4.137 8.504,-8.406 15.95,-12.813c7.451,-4.402 13.078,-7.426 16.891,-9.073c3.824,-1.627 10.451,-4.313 19.892,-8.039c1.647,-0.637 2.872,-1.132 3.695,-1.5l0,-12.538c0,-8.809 -1.245,-15.647 -3.695,-20.509c-2.451,-4.843 -7.03,-7.274 -13.75,-7.274c-5.99,-0 -10.279,2.068 -12.886,6.2c-2.584,4.118 -4.059,9.823 -4.422,17.103c-0.098,0.995 -0.132,2.49 -0.132,4.48l-34.886,-0c0.191,-16.696 4.863,-30.023 14.034,-39.925c9.171,-9.901 21.94,-14.837 38.292,-14.837c16.259,-0 29.048,5.014 38.356,15.048c9.304,10.034 13.955,23.283 13.955,39.714l0,78.481c0,18.176 1.515,32.705 4.5,43.621l-34.753,-0l-4.613,-26.175c-1.404,2.851 -2.878,5.667 -4.421,8.445c-1.152,2.01 -2.818,4.48 -4.98,7.426c-2.181,2.971 -4.363,5.23 -6.549,6.819c-2.181,1.588 -4.902,2.965 -8.176,4.156c-3.455,1.218 -7.096,1.82 -10.759,1.78" style="fill:#414042;fill-rule:nonzero;"/>
        <path d="M357.272,576.855l0,-78.678l30.92,0l0,8.426l-19.68,0l-0,25.293l14.053,0l0,8.426l-14.053,0l-0,36.533l-11.24,-0" style="fill:#808285;fill-rule:nonzero;"/>
        <path d="M408.128,564.865c1.49,2.378 4.23,3.564 8.176,3.564c3.96,-0 6.681,-1.186 8.195,-3.564c1.51,-2.372 2.255,-5.857 2.255,-10.489l0,-34.161c0,-4.578 -0.745,-7.984 -2.24,-10.244c-1.49,-2.24 -4.23,-3.368 -8.21,-3.368c-3.985,0 -6.721,1.128 -8.216,3.368c-1.495,2.26 -2.24,5.666 -2.24,10.244l0,34.161c0,4.632 0.765,8.117 2.28,10.489Zm8.176,12.774c-3.946,0 -7.333,-0.593 -10.171,-1.799c-2.695,-1.092 -5.03,-2.918 -6.74,-5.269c-1.726,-2.452 -2.962,-5.215 -3.637,-8.137c-0.765,-3.117 -1.147,-6.74 -1.147,-10.872l-0,-28.528c-0,-4.142 0.382,-7.74 1.147,-10.823c0.675,-2.881 1.911,-5.601 3.637,-8.005c1.666,-2.254 3.926,-3.98 6.74,-5.112c2.838,-1.147 6.225,-1.701 10.171,-1.701c7.676,0 13.21,2.181 16.597,6.568c3.392,4.402 5.098,10.76 5.098,19.068l-0,28.528c-0,4.083 -0.387,7.662 -1.172,10.784c-0.686,2.934 -1.927,5.709 -3.656,8.176c-1.667,2.314 -3.922,4.098 -6.74,5.304c-2.833,1.225 -6.206,1.813 -10.127,1.813" style="fill:#808285;fill-rule:nonzero;"/>
        <path d="M480.541,576.335c-2.603,0.902 -5.608,1.363 -9.039,1.363c-3.426,0 -6.451,-0.461 -9.053,-1.363c-2.603,-0.916 -4.75,-2.181 -6.436,-3.808c-1.766,-1.745 -3.16,-3.83 -4.098,-6.127c-1.08,-2.55 -1.833,-5.227 -2.24,-7.966c-0.468,-3.208 -0.691,-6.448 -0.667,-9.69l0,-50.562l11.254,0l0,50.566c0,2.432 0.04,4.481 0.157,6.108c0.098,1.647 0.363,3.392 0.804,5.245c0.441,1.862 1.054,3.353 1.814,4.46c0.789,1.113 1.882,2.035 3.299,2.78c1.416,0.73 3.137,1.093 5.166,1.093c2.01,-0 3.735,-0.363 5.152,-1.093c1.421,-0.745 2.529,-1.667 3.294,-2.775c0.784,-1.112 1.377,-2.603 1.818,-4.46c0.417,-1.723 0.693,-3.477 0.824,-5.245c0.098,-1.632 0.152,-3.676 0.152,-6.113l-0,-50.566l11.239,0l0,50.566c0,3.603 -0.23,6.838 -0.666,9.691c-0.407,2.739 -1.16,5.416 -2.24,7.965c-0.939,2.298 -2.333,4.383 -4.098,6.128c-1.686,1.627 -3.833,2.892 -6.436,3.808" style="fill:#808285;fill-rule:nonzero;"/>
        <path d="M506.412,576.855l0,-78.678l8.421,0l19.666,48.655l0,-48.655l11.24,0l-0,78.673l-7.985,0l-20.107,-52.326l-0,52.331l-11.24,-0" style="fill:#808285;fill-rule:nonzero;"/>
        <path d="M570.022,568.424l6.201,-0c1.838,-0 3.426,-0.167 4.73,-0.515c1.232,-0.275 2.353,-0.916 3.215,-1.838c0.824,-0.882 1.456,-1.74 1.932,-2.549c0.46,-0.799 0.784,-2.044 0.98,-3.75c0.191,-1.7 0.304,-3.097 0.343,-4.191c0.02,-1.093 0.039,-2.794 0.039,-5.112l0,-26.999c0,-1.436 -0.019,-2.583 -0.019,-3.431c-0.02,-0.858 -0.079,-1.853 -0.138,-3c-0.083,-1.709 -0.405,-3.399 -0.955,-5.019c-0.189,-0.711 -0.523,-1.375 -0.981,-1.951c-0.449,-0.518 -0.934,-1.005 -1.451,-1.456c-0.569,-0.517 -1.24,-0.909 -1.97,-1.152c-1.929,-0.593 -3.938,-0.884 -5.956,-0.863l-5.975,0l0.005,61.826Zm-11.245,8.431l0,-78.678l17.446,0c8.21,0 14.019,1.686 17.401,5.034c3.392,3.373 5.078,9.191 5.078,17.446l-0,30.905c-0,8.632 -1.725,15.009 -5.171,19.127c-3.432,4.117 -9.23,6.166 -17.402,6.166l-17.352,-0" style="fill:#808285;fill-rule:nonzero;"/>
        <path d="M620.872,548.744l11.24,-0l-5.627,-33.719l-5.613,33.719Zm-16.866,28.111l16.866,-78.678l11.24,0l16.852,78.673l-11.239,0l-4.216,-19.661l-14.034,0l-4.23,19.666l-11.239,-0" style="fill:#808285;fill-rule:nonzero;"/>
        <path d="M663.282,576.855l0,-68.663l-14.053,-0l-0,-10.015l39.351,0l0,10.015l-14.058,-0l-0,68.663l-11.24,-0" style="fill:#808285;fill-rule:nonzero;"/>
        <path d="M696.467,576.855l-0,-78.678l11.259,0l0,78.673l-11.259,0" style="fill:#808285;fill-rule:nonzero;"/>
        <path d="M733.651,564.865c1.495,2.378 4.231,3.564 8.176,3.564c3.961,-0 6.682,-1.186 8.196,-3.564c1.51,-2.372 2.255,-5.857 2.255,-10.489l-0,-34.161c-0,-4.578 -0.745,-7.984 -2.235,-10.244c-1.495,-2.24 -4.235,-3.368 -8.216,-3.368c-3.985,0 -6.72,1.128 -8.215,3.368c-1.47,2.26 -2.22,5.666 -2.22,10.244l-0,34.161c-0,4.632 0.745,8.117 2.254,10.489l0.005,0Zm8.176,12.774c-3.945,0 -7.333,-0.593 -10.166,-1.799c-2.689,-1.092 -5.017,-2.918 -6.72,-5.269c-1.742,-2.446 -2.986,-5.211 -3.662,-8.137c-0.764,-3.117 -1.147,-6.74 -1.147,-10.872l0,-28.528c0,-4.142 0.383,-7.74 1.147,-10.823c0.77,-3.064 1.976,-5.745 3.662,-8.005c1.711,-2.303 4.039,-4.076 6.715,-5.112c2.838,-1.147 6.226,-1.701 10.171,-1.701c7.677,0 13.211,2.181 16.603,6.568c3.406,4.402 5.093,10.76 5.093,19.068l-0,28.528c-0,4.083 -0.383,7.662 -1.172,10.784c-0.686,2.934 -1.927,5.709 -3.657,8.176c-1.666,2.314 -3.921,4.098 -6.74,5.304c-2.833,1.225 -6.2,1.813 -10.127,1.813" style="fill:#808285;fill-rule:nonzero;"/>
        <path d="M775.159,576.855l0,-78.678l8.431,0l19.661,48.655l0,-48.655l11.24,0l-0,78.673l-7.985,0l-20.102,-52.326l-0,52.331l-11.24,-0" style="fill:#808285;fill-rule:nonzero;"/>
        <path d="M646.685,-0l-3.794,57.483l28.567,30.88l0.5,0.197l-41.664,1.813l-37.744,43.508l182.148,-2.912l-128.013,-130.969" style="fill:#f57f29;fill-rule:nonzero;"/>
        <path d="M1241.07,269.252l-88.515,64.33l28.837,-82.104l59.678,17.774Z" style="fill:#f57f29;fill-rule:nonzero;"/>
        <path d="M1155.64,74.389l-35.082,88.858l-345.856,-32.263l380.938,-56.595Z" style="fill:#00b6c9;fill-rule:nonzero;"/>
        <path d="M1152.56,333.582l-139.278,101.319l57.233,-144.929l82.045,43.61Z" style="fill:#f57f29;fill-rule:nonzero;"/>
        <path d="M1117.77,162.409l-343.062,-31.42l318.23,94.319l-25.101,63.203l84.726,45.076l29.141,-82.697l28.204,-80.153l-92.138,-8.333" style="fill:#005c98;fill-rule:nonzero;"/>
        <path d="M774.718,130.989l320.951,95.162l-25.215,63.821l-295.731,-158.964" style="fill:#fff;fill-rule:nonzero;"/>
        <path d="M1070.51,289.967l-57.233,144.934l-238.577,-303.907l295.81,158.973Z" style="fill:#00b6c9;fill-rule:nonzero;"/>
    </g>
    <g id="Copyright">
        <path d="M841.468,561.781l0,-4.281l2.724,-0c0.364,-0 0.746,0.026 1.148,0.078c0.403,0.052 0.766,0.149 1.09,0.291c0.324,0.143 0.59,0.344 0.798,0.604c0.207,0.259 0.311,0.609 0.311,1.05c0,0.986 -0.298,1.609 -0.895,1.869c-0.597,0.259 -1.362,0.389 -2.296,0.389l-2.88,-0Zm-3.23,-6.811l-0,16.307l3.23,-0l0,-6.967l2.024,0l3.969,6.967l3.386,-0l-4.359,-7.122c0.597,-0.052 1.155,-0.169 1.674,-0.351c0.519,-0.181 0.973,-0.441 1.362,-0.778c0.389,-0.337 0.694,-0.772 0.915,-1.304c0.22,-0.532 0.33,-1.174 0.33,-1.926c0,-1.764 -0.551,-3.01 -1.654,-3.736c-1.102,-0.727 -2.678,-1.09 -4.728,-1.09l-6.149,0Zm-5.176,8.173c-0,-1.661 0.285,-3.185 0.856,-4.573c0.571,-1.388 1.349,-2.588 2.335,-3.6c0.986,-1.012 2.147,-1.803 3.483,-2.374c1.336,-0.571 2.77,-0.856 4.301,-0.856c1.504,-0 2.925,0.285 4.261,0.856c1.336,0.571 2.497,1.362 3.483,2.374c0.986,1.012 1.771,2.212 2.355,3.6c0.584,1.388 0.875,2.912 0.875,4.573c0,1.66 -0.291,3.191 -0.875,4.592c-0.584,1.401 -1.369,2.614 -2.355,3.639c-0.986,1.025 -2.147,1.823 -3.483,2.393c-1.336,0.571 -2.757,0.857 -4.261,0.857c-1.531,-0 -2.965,-0.286 -4.301,-0.857c-1.336,-0.57 -2.497,-1.368 -3.483,-2.393c-0.986,-1.025 -1.764,-2.238 -2.335,-3.639c-0.571,-1.401 -0.856,-2.932 -0.856,-4.592Zm-3.97,-0c0,2.231 0.409,4.242 1.226,6.032c0.817,1.79 1.914,3.321 3.289,4.592c1.375,1.272 2.964,2.245 4.767,2.919c1.803,0.675 3.691,1.012 5.663,1.012c1.972,0 3.859,-0.337 5.662,-1.012c1.803,-0.674 3.393,-1.647 4.768,-2.919c1.375,-1.271 2.471,-2.802 3.288,-4.592c0.817,-1.79 1.226,-3.801 1.226,-6.032c0,-2.205 -0.409,-4.203 -1.226,-5.993c-0.817,-1.791 -1.913,-3.315 -3.288,-4.573c-1.375,-1.259 -2.965,-2.232 -4.768,-2.919c-1.803,-0.688 -3.69,-1.031 -5.662,-1.031c-1.972,-0 -3.86,0.343 -5.663,1.031c-1.803,0.687 -3.392,1.66 -4.767,2.919c-1.375,1.258 -2.472,2.782 -3.289,4.573c-0.817,1.79 -1.226,3.788 -1.226,5.993Z" style="fill-rule:nonzero;"/>
    </g>
</svg>
