<?xml version="1.0" encoding="UTF-8" standalone="no"?>
<!DOCTYPE svg PUBLIC "-//W3C//DTD SVG 1.1//EN" "http://www.w3.org/Graphics/SVG/1.1/DTD/svg11.dtd">
<svg width="100%" height="100%" viewBox="0 0 339 61" version="1.1" xmlns="http://www.w3.org/2000/svg" xmlns:xlink="http://www.w3.org/1999/xlink" xml:space="preserve" xmlns:serif="http://www.serif.com/" style="fill-rule:evenodd;clip-rule:evenodd;stroke-linejoin:round;stroke-miterlimit:2;">
    <g transform="matrix(1,0,0,1,-82.0812,-520.37)">
        <g transform="matrix(1.70467,0,0,1.70467,-219.929,218.36)">
            <g transform="matrix(35.4064,0,0,-35.4064,177.166,194.87)">
                <path d="M0,-0C0,-0.275 0.221,-0.497 0.495,-0.5L0.505,-0.5C0.779,-0.497 1,-0.275 1,-0C1,0.276 0.776,0.5 0.5,0.5C0.224,0.5 0,0.276 0,-0Z" style="fill:url(#_Linear1);fill-rule:nonzero;"/>
            </g>
            <g transform="matrix(1,0,0,1,192.38,196.812)">
                <path d="M0,-3.885C0.264,-4.373 0.633,-4.762 1.097,-5.042C1.559,-5.322 2.083,-5.464 2.658,-5.464C3.243,-5.464 3.772,-5.322 4.227,-5.043C4.686,-4.762 5.056,-4.372 5.327,-3.883C5.597,-3.392 5.735,-2.824 5.735,-2.195C5.735,-1.579 5.597,-1.018 5.327,-0.527C5.056,-0.038 4.686,0.353 4.227,0.634C3.328,1.186 2.028,1.198 1.097,0.632C0.633,0.353 0.264,-0.037 0,-0.525C-0.265,-1.015 -0.4,-1.577 -0.4,-2.195C-0.4,-2.826 -0.265,-3.394 0,-3.885M-1.813,-9.708C-0.57,-10.456 0.874,-10.835 2.48,-10.835C4.795,-10.835 6.759,-9.997 8.316,-8.344C8.624,-8.037 8.961,-7.844 9.333,-7.768C9.653,-7.701 9.923,-7.758 10.184,-7.945C10.582,-8.231 10.815,-8.537 10.895,-8.88C10.938,-9.061 10.953,-9.348 10.6,-9.751C9.524,-10.993 8.298,-11.935 6.952,-12.554C5.609,-13.17 4.105,-13.483 2.48,-13.483C0.294,-13.483 -1.666,-12.988 -3.343,-12.011C-5.02,-11.036 -6.358,-9.663 -7.319,-7.93C-8.286,-6.192 -8.776,-4.17 -8.776,-1.92C-8.776,0.269 -8.279,2.252 -7.301,3.975C-6.322,5.698 -4.954,7.08 -3.232,8.083C-1.513,9.088 0.483,9.598 2.699,9.598C5.679,9.598 8.19,8.666 10.163,6.83C10.498,6.495 10.509,6.193 10.487,5.997C10.448,5.658 10.25,5.345 9.885,5.044C9.632,4.829 9.37,4.748 9.041,4.773C8.672,4.805 8.314,4.967 7.946,5.266C7.241,5.843 6.452,6.274 5.6,6.547C4.766,6.815 3.79,6.95 2.699,6.95C1.608,6.95 0.603,6.765 -0.324,6.43L-0.324,2.163C0.021,2.464 0.403,2.719 0.821,2.926C1.493,3.259 2.24,3.428 3.04,3.428C4.029,3.428 4.931,3.176 5.72,2.68C6.504,2.187 7.13,1.509 7.583,0.665C8.034,-0.176 8.263,-1.139 8.263,-2.195C8.263,-3.255 8.013,-4.224 7.52,-5.074C7.029,-5.923 6.356,-6.603 5.52,-7.095C4.682,-7.588 3.719,-7.838 2.658,-7.838C1.608,-7.838 0.652,-7.588 -0.185,-7.095C-1.022,-6.602 -1.692,-5.922 -2.178,-5.073C-2.662,-4.224 -2.915,-3.257 -2.928,-2.195L-2.928,4.864C-3.637,4.226 -4.241,3.48 -4.709,2.608C-5.418,1.287 -5.776,-0.236 -5.776,-1.92C-5.776,-3.688 -5.426,-5.255 -4.735,-6.574C-4.037,-7.905 -3.054,-8.96 -1.813,-9.708" style="fill:white;fill-rule:nonzero;"/>
            </g>
            <g transform="matrix(1,0,0,1,230.105,185.992)">
                <path d="M0,17.713C-1.194,17.713 -2.311,17.488 -3.35,17.039C-4.389,16.59 -5.296,15.963 -6.07,15.159C-6.844,14.355 -7.449,13.416 -7.883,12.339C-8.318,11.264 -8.536,10.098 -8.536,8.845C-8.536,7.608 -8.318,6.453 -7.883,5.385C-7.449,4.316 -6.844,3.38 -6.07,2.576C-5.296,1.773 -4.393,1.143 -3.361,0.685C-2.329,0.229 -1.209,0 0,0C1.135,0 2.112,0.147 2.931,0.442C3.749,0.737 4.57,1.224 5.396,1.901C5.514,1.991 5.606,2.083 5.672,2.178C5.739,2.274 5.784,2.37 5.805,2.466C5.827,2.562 5.838,2.676 5.838,2.808C5.838,3.088 5.739,3.32 5.54,3.505C5.341,3.689 5.101,3.792 4.821,3.815C4.54,3.837 4.268,3.745 4.003,3.538C3.457,3.067 2.893,2.706 2.311,2.455C1.729,2.204 0.959,2.078 0,2.078C-0.87,2.078 -1.688,2.256 -2.454,2.609C-3.221,2.963 -3.895,3.449 -4.477,4.069C-5.06,4.688 -5.514,5.407 -5.838,6.225C-6.163,7.043 -6.325,7.916 -6.325,8.845C-6.325,9.789 -6.163,10.669 -5.838,11.488C-5.514,12.306 -5.06,13.025 -4.477,13.645C-3.895,14.263 -3.221,14.747 -2.454,15.093C-1.688,15.44 -0.87,15.612 0,15.612C0.752,15.612 1.463,15.483 2.134,15.225C2.805,14.967 3.451,14.61 4.069,14.154C4.335,13.961 4.596,13.877 4.855,13.899C5.113,13.921 5.331,14.024 5.507,14.208C5.684,14.393 5.772,14.646 5.772,14.971C5.772,15.119 5.743,15.262 5.684,15.402C5.625,15.543 5.536,15.672 5.418,15.79C4.623,16.423 3.771,16.903 2.864,17.226C1.957,17.551 1.003,17.713 0,17.713" style="fill:rgb(0,176,200);fill-rule:nonzero;"/>
            </g>
            <g transform="matrix(1,0,0,1,247.248,195.313)">
                <path d="M0,4.246C-0.339,4.873 -0.803,5.366 -1.393,5.728C-1.983,6.089 -2.653,6.269 -3.405,6.269C-4.143,6.269 -4.809,6.089 -5.406,5.728C-6.003,5.366 -6.476,4.873 -6.821,4.246C-7.168,3.619 -7.342,2.916 -7.342,2.134C-7.342,1.339 -7.168,0.627 -6.821,0C-6.476,-0.627 -6.003,-1.12 -5.406,-1.481C-4.809,-1.842 -4.143,-2.023 -3.405,-2.023C-2.653,-2.023 -1.983,-1.842 -1.393,-1.481C-0.803,-1.12 -0.339,-0.627 0,0C0.339,0.627 0.509,1.339 0.509,2.134C0.509,2.916 0.339,3.619 0,4.246M1.868,-1.006C1.331,-1.935 0.605,-2.668 -0.309,-3.207C-1.223,-3.744 -2.255,-4.014 -3.405,-4.014C-4.555,-4.014 -5.591,-3.744 -6.513,-3.207C-7.434,-2.668 -8.164,-1.935 -8.701,-1.006C-9.24,-0.077 -9.509,0.969 -9.509,2.134C-9.509,3.299 -9.262,4.342 -8.768,5.263C-8.274,6.184 -7.6,6.915 -6.745,7.452C-5.889,7.991 -4.924,8.26 -3.848,8.26C-2.772,8.26 -1.805,7.991 -0.951,7.452C-0.421,7.119 0.03,6.704 0.421,6.224L0.421,7.065C0.421,7.39 0.527,7.659 0.741,7.873C0.954,8.087 1.224,8.193 1.549,8.193C1.872,8.193 2.142,8.087 2.356,7.873C2.568,7.659 2.676,7.39 2.676,7.065L2.676,2.134C2.676,0.969 2.407,-0.077 1.868,-1.006" style="fill:rgb(0,176,200);fill-rule:nonzero;"/>
            </g>
            <g transform="matrix(1,0,0,1,260.957,203.053)">
                <path d="M0,-11.366C-0.435,-11.654 -1.095,-11.797 -1.98,-11.797C-2.864,-11.797 -3.675,-11.591 -4.411,-11.178C-4.91,-10.899 -5.335,-10.548 -5.695,-10.137L-5.695,-10.559C-5.695,-10.927 -5.787,-11.204 -5.971,-11.388C-6.156,-11.573 -6.432,-11.665 -6.8,-11.665C-7.154,-11.665 -7.428,-11.568 -7.619,-11.377C-7.81,-11.186 -7.906,-10.913 -7.906,-10.559L-7.906,-0.674C-7.906,-0.306 -7.81,-0.029 -7.619,0.155C-7.428,0.34 -7.154,0.431 -6.8,0.431C-6.432,0.431 -6.156,0.336 -5.971,0.144C-5.787,-0.048 -5.695,-0.32 -5.695,-0.674L-5.695,-7.131C-5.695,-7.81 -5.477,-8.37 -5.043,-8.812C-4.608,-9.254 -4.014,-9.556 -3.262,-9.719C-2.511,-9.881 -1.663,-9.866 -0.719,-9.674C-0.527,-9.631 -0.351,-9.623 -0.188,-9.653C-0.027,-9.682 0.118,-9.752 0.243,-9.863C0.368,-9.973 0.454,-10.132 0.497,-10.338C0.6,-10.736 0.434,-11.078 0,-11.366" style="fill:rgb(0,176,200);fill-rule:nonzero;"/>
            </g>
            <g transform="matrix(1,0,0,1,265.906,201.118)">
                <path d="M0,-7.364C0.596,-7.733 1.315,-7.917 2.156,-7.917C2.893,-7.917 3.519,-7.747 4.034,-7.408C4.552,-7.069 4.949,-6.609 5.229,-6.026C5.428,-5.612 5.557,-5.158 5.622,-4.667L-1.733,-4.667C-1.657,-5.087 -1.537,-5.484 -1.36,-5.85C-1.051,-6.491 -0.598,-6.995 0,-7.364M7.374,-3.174C7.565,-3.358 7.662,-3.59 7.662,-3.87C7.662,-5.034 7.444,-6.063 7.01,-6.955C6.575,-7.847 5.945,-8.547 5.119,-9.056C4.293,-9.565 3.306,-9.819 2.156,-9.819C0.991,-9.819 -0.041,-9.557 -0.94,-9.034C-1.84,-8.511 -2.544,-7.787 -3.052,-6.866C-3.561,-5.945 -3.815,-4.88 -3.815,-3.671C-3.815,-2.477 -3.547,-1.419 -3.008,-0.497C-2.47,0.424 -1.726,1.146 -0.774,1.67C0.177,2.193 1.263,2.455 2.487,2.455C3.165,2.455 3.877,2.329 4.621,2.078C5.366,1.828 5.989,1.504 6.49,1.106C6.74,0.914 6.858,0.685 6.844,0.42C6.829,0.155 6.697,-0.088 6.446,-0.309C6.255,-0.472 6.029,-0.549 5.771,-0.542C5.513,-0.534 5.274,-0.45 5.052,-0.287C4.757,-0.066 4.37,0.129 3.892,0.298C3.413,0.468 2.944,0.553 2.487,0.553C1.647,0.553 0.902,0.368 0.254,-0C-0.395,-0.368 -0.903,-0.869 -1.272,-1.504C-1.519,-1.928 -1.675,-2.394 -1.756,-2.897L6.644,-2.897C6.94,-2.897 7.183,-2.989 7.374,-3.174" style="fill:rgb(0,176,200);fill-rule:nonzero;"/>
            </g>
            <g transform="matrix(0.566961,0,0,0.566961,219.547,144.613)">
                <g transform="matrix(1,0,0,1,110.752,87.7281)">
                    <path d="M0,1.831L5.765,1.831C6.958,1.831 8.01,1.572 8.919,1.052C9.827,0.533 10.541,-0.181 11.062,-1.09C11.58,-1.999 11.841,-3.038 11.841,-4.206C11.841,-5.453 11.58,-6.55 11.062,-7.498C10.541,-8.446 9.827,-9.192 8.919,-9.738C8.01,-10.284 6.958,-10.556 5.765,-10.556L0,-10.556L0,1.831ZM-2.025,16.126C-2.597,16.126 -3.078,15.932 -3.468,15.542C-3.856,15.152 -4.051,14.672 -4.051,14.101L-4.051,-12.27C-4.051,-12.867 -3.856,-13.354 -3.468,-13.73C-3.078,-14.106 -2.597,-14.295 -2.025,-14.295L5.765,-14.295C7.712,-14.295 9.438,-13.867 10.944,-13.009C12.449,-12.152 13.625,-10.964 14.469,-9.446C15.313,-7.926 15.734,-6.18 15.734,-4.206C15.734,-2.31 15.313,-0.623 14.469,0.856C13.625,2.337 12.449,3.492 10.944,4.324C9.438,5.155 7.712,5.57 5.765,5.57L0,5.57L0,14.101C0,14.672 -0.189,15.152 -0.565,15.542C-0.943,15.932 -1.429,16.126 -2.025,16.126" style="fill:rgb(0,88,155);fill-rule:nonzero;"/>
                </g>
                <g transform="matrix(1,0,0,1,143.732,103.095)">
                    <path d="M0,-20.021C-0.767,-20.527 -1.929,-20.78 -3.487,-20.78C-5.045,-20.78 -6.473,-20.416 -7.771,-19.69C-8.649,-19.198 -9.396,-18.58 -10.03,-17.857L-10.03,-18.6C-10.03,-19.248 -10.192,-19.735 -10.518,-20.06C-10.843,-20.385 -11.329,-20.547 -11.978,-20.547C-12.602,-20.547 -13.083,-20.377 -13.42,-20.041C-13.756,-19.704 -13.926,-19.222 -13.926,-18.6L-13.926,-1.188C-13.926,-0.539 -13.756,-0.051 -13.42,0.272C-13.083,0.598 -12.602,0.759 -11.978,0.759C-11.329,0.759 -10.843,0.59 -10.518,0.252C-10.192,-0.084 -10.03,-0.566 -10.03,-1.188L-10.03,-12.562C-10.03,-13.757 -9.647,-14.743 -8.882,-15.522C-8.116,-16.301 -7.07,-16.833 -5.745,-17.119C-4.422,-17.404 -2.929,-17.379 -1.266,-17.041C-0.93,-16.964 -0.618,-16.951 -0.332,-17.003C-0.047,-17.054 0.207,-17.177 0.429,-17.373C0.648,-17.567 0.798,-17.847 0.875,-18.21C1.057,-18.911 0.766,-19.514 0,-20.021" style="fill:rgb(0,88,155);fill-rule:nonzero;"/>
                </g>
                <g transform="matrix(2.10652,0,0,2.10652,152.726,99.6851)">
                    <path d="M0,-6.157C0.5,-6.466 1.101,-6.619 1.804,-6.619C2.42,-6.619 2.943,-6.477 3.375,-6.193C3.807,-5.911 4.14,-5.525 4.374,-5.039C4.539,-4.695 4.629,-4.308 4.684,-3.901L-1.44,-3.901C-1.377,-4.252 -1.283,-4.586 -1.137,-4.89C-0.878,-5.427 -0.499,-5.848 0,-6.157M6.168,-2.653C6.327,-2.807 6.408,-3.001 6.408,-3.235C6.408,-4.209 6.226,-5.069 5.862,-5.815C5.499,-6.56 4.972,-7.146 4.281,-7.571C3.591,-7.997 2.765,-8.21 1.804,-8.21C0.83,-8.21 -0.033,-7.991 -0.785,-7.553C-1.538,-7.115 -2.125,-6.511 -2.551,-5.741C-2.976,-4.97 -3.189,-4.08 -3.189,-3.069C-3.189,-2.071 -2.964,-1.185 -2.514,-0.416C-2.064,0.355 -1.44,0.959 -0.646,1.396C0.148,1.834 1.057,2.053 2.08,2.053C2.648,2.053 3.243,1.948 3.865,1.739C4.487,1.53 5.008,1.257 5.428,0.925C5.638,0.765 5.736,0.573 5.725,0.352C5.711,0.13 5.601,-0.074 5.392,-0.259C5.23,-0.394 5.043,-0.459 4.826,-0.452C4.611,-0.446 4.41,-0.375 4.226,-0.24C3.979,-0.054 3.656,0.109 3.255,0.25C2.854,0.392 2.464,0.463 2.08,0.463C1.378,0.463 0.756,0.309 0.214,-0C-0.33,-0.307 -0.755,-0.727 -1.062,-1.257C-1.269,-1.611 -1.399,-2.002 -1.467,-2.422L5.558,-2.422C5.803,-2.422 6.008,-2.499 6.168,-2.653" style="fill:rgb(0,88,155);fill-rule:nonzero;"/>
                </g>
                <g transform="matrix(2.10652,0,0,2.10652,180.168,82.3927)">
                    <path d="M0,10.262C-0.986,10.262 -1.864,10.037 -2.635,9.587C-3.405,9.137 -4.009,8.528 -4.446,7.757C-4.884,6.987 -5.104,6.115 -5.104,5.14C-5.104,4.142 -4.887,3.254 -4.456,2.477C-4.024,1.7 -3.433,1.094 -2.682,0.657C-1.929,0.219 -1.066,0 -0.093,0C0.636,0 1.3,0.138 1.905,0.415C2.508,0.693 3.052,1.11 3.531,1.663C3.704,1.861 3.766,2.065 3.718,2.275C3.668,2.484 3.531,2.668 3.311,2.828C3.138,2.951 2.947,2.991 2.736,2.949C2.527,2.906 2.336,2.798 2.164,2.625C1.559,1.985 0.808,1.663 -0.093,1.663C-0.721,1.663 -1.275,1.809 -1.757,2.098C-2.236,2.388 -2.613,2.792 -2.884,3.31C-3.155,3.827 -3.291,4.438 -3.291,5.14C-3.291,5.805 -3.152,6.398 -2.875,6.915C-2.598,7.433 -2.212,7.843 -1.719,8.145C-1.227,8.447 -0.652,8.598 0,8.598C0.431,8.598 0.812,8.545 1.138,8.441C1.464,8.336 1.764,8.172 2.034,7.95C2.231,7.79 2.436,7.7 2.645,7.683C2.854,7.663 3.039,7.723 3.2,7.858C3.409,8.031 3.525,8.225 3.551,8.441C3.575,8.657 3.501,8.851 3.328,9.023C2.441,9.849 1.332,10.262 0,10.262" style="fill:rgb(0,88,155);fill-rule:nonzero;"/>
                </g>
                <g transform="matrix(2.10652,0,0,2.10652,194.294,73.9409)">
                    <path d="M0,14.2C-0.271,14.2 -0.497,14.111 -0.674,13.932C-0.854,13.754 -0.943,13.529 -0.943,13.257L-0.943,5.028C-0.943,4.746 -0.854,4.517 -0.674,4.346C-0.497,4.173 -0.271,4.086 0,4.086C0.284,4.086 0.512,4.173 0.685,4.346C0.856,4.517 0.943,4.746 0.943,5.028L0.943,13.257C0.943,13.529 0.856,13.754 0.685,13.932C0.512,14.111 0.284,14.2 0,14.2M0,2.44C-0.332,2.44 -0.619,2.32 -0.86,2.08C-1.1,1.839 -1.221,1.553 -1.221,1.22C-1.221,0.887 -1.1,0.6 -0.86,0.36C-0.619,0.12 -0.332,0 0,0C0.333,0 0.62,0.12 0.859,0.36C1.101,0.6 1.222,0.887 1.222,1.22C1.222,1.553 1.101,1.839 0.859,2.08C0.62,2.32 0.333,2.44 0,2.44" style="fill:rgb(0,88,155);fill-rule:nonzero;"/>
                </g>
                <g transform="matrix(2.10652,0,0,2.10652,209.432,82.3927)">
                    <path d="M0,10.262C-0.863,10.262 -1.661,10.129 -2.396,9.864C-3.128,9.599 -3.699,9.264 -4.106,8.857C-4.291,8.659 -4.368,8.434 -4.336,8.181C-4.306,7.929 -4.187,7.723 -3.976,7.562C-3.729,7.366 -3.485,7.283 -3.246,7.313C-3.006,7.343 -2.8,7.451 -2.625,7.636C-2.417,7.87 -2.08,8.089 -1.619,8.292C-1.155,8.496 -0.643,8.598 -0.074,8.598C0.64,8.598 1.187,8.481 1.562,8.246C1.937,8.013 2.133,7.71 2.145,7.34C2.157,6.97 1.981,6.65 1.618,6.379C1.253,6.108 0.592,5.886 -0.37,5.713C-1.616,5.467 -2.518,5.097 -3.08,4.604C-3.64,4.111 -3.92,3.506 -3.92,2.792C-3.92,2.163 -3.735,1.642 -3.366,1.229C-2.996,0.817 -2.521,0.508 -1.942,0.305C-1.363,0.101 -0.759,0 -0.131,0C0.684,0 1.404,0.129 2.034,0.388C2.662,0.647 3.162,1.004 3.531,1.46C3.704,1.658 3.784,1.865 3.772,2.079C3.759,2.295 3.654,2.477 3.457,2.625C3.261,2.761 3.025,2.804 2.755,2.755C2.483,2.705 2.255,2.595 2.07,2.422C1.762,2.126 1.429,1.922 1.071,1.812C0.714,1.7 0.301,1.646 -0.167,1.646C-0.709,1.646 -1.169,1.738 -1.545,1.922C-1.92,2.108 -2.107,2.379 -2.107,2.736C-2.107,2.958 -2.05,3.158 -1.932,3.337C-1.815,3.516 -1.584,3.676 -1.239,3.818C-0.896,3.96 -0.39,4.099 0.276,4.234C1.201,4.418 1.932,4.654 2.469,4.937C3.005,5.22 3.389,5.55 3.624,5.926C3.858,6.302 3.975,6.737 3.975,7.229C3.975,7.797 3.823,8.309 3.522,8.764C3.22,9.221 2.776,9.584 2.19,9.855C1.604,10.126 0.875,10.262 0,10.262" style="fill:rgb(0,88,155);fill-rule:nonzero;"/>
                </g>
                <g transform="matrix(2.10652,0,0,2.10652,224.206,73.9409)">
                    <path d="M0,14.2C-0.271,14.2 -0.496,14.111 -0.674,13.932C-0.854,13.754 -0.943,13.529 -0.943,13.257L-0.943,5.028C-0.943,4.746 -0.854,4.517 -0.674,4.346C-0.496,4.173 -0.271,4.086 0,4.086C0.285,4.086 0.512,4.173 0.685,4.346C0.857,4.517 0.943,4.746 0.943,5.028L0.943,13.257C0.943,13.529 0.857,13.754 0.685,13.932C0.512,14.111 0.285,14.2 0,14.2M0,2.44C-0.331,2.44 -0.619,2.32 -0.859,2.08C-1.099,1.839 -1.22,1.553 -1.22,1.22C-1.22,0.887 -1.099,0.6 -0.859,0.36C-0.619,0.12 -0.331,0 0,0C0.333,0 0.621,0.12 0.86,0.36C1.101,0.6 1.222,0.887 1.222,1.22C1.222,1.553 1.101,1.839 0.86,2.08C0.621,2.32 0.333,2.44 0,2.44" style="fill:rgb(0,88,155);fill-rule:nonzero;"/>
                </g>
                <g transform="matrix(2.10652,0,0,2.10652,241.251,85.8977)">
                    <path d="M0,6.934C0.642,6.934 1.208,6.787 1.701,6.491C2.195,6.194 2.579,5.788 2.858,5.27C3.135,4.752 3.272,4.155 3.272,3.476C3.272,2.798 3.135,2.198 2.858,1.673C2.579,1.15 2.195,0.74 1.701,0.444C1.208,0.148 0.642,-0.001 0,-0.001C-0.641,-0.001 -1.208,0.148 -1.7,0.444C-2.193,0.74 -2.583,1.15 -2.866,1.673C-3.148,2.198 -3.291,2.798 -3.291,3.476C-3.291,4.155 -3.148,4.752 -2.866,5.27C-2.583,5.788 -2.193,6.194 -1.7,6.491C-1.208,6.787 -0.641,6.934 0,6.934M0,8.598C-0.998,8.598 -1.879,8.379 -2.644,7.941C-3.408,7.504 -4.009,6.9 -4.446,6.129C-4.884,5.36 -5.104,4.474 -5.104,3.476C-5.104,2.465 -4.884,1.575 -4.446,0.804C-4.009,0.034 -3.408,-0.57 -2.644,-1.007C-1.879,-1.445 -0.998,-1.664 0,-1.664C0.987,-1.664 1.862,-1.445 2.626,-1.007C3.391,-0.57 3.992,0.034 4.43,0.804C4.867,1.575 5.085,2.465 5.085,3.476C5.085,4.474 4.87,5.36 4.438,6.129C4.007,6.9 3.409,7.504 2.645,7.941C1.88,8.379 0.999,8.598 0,8.598" style="fill:rgb(0,88,155);fill-rule:nonzero;"/>
                </g>
                <g transform="matrix(2.10652,0,0,2.10652,274.638,99.3716)">
                    <path d="M0,-5.934C-0.388,-6.637 -0.917,-7.169 -1.589,-7.534C-2.262,-7.897 -3.023,-8.08 -3.872,-8.08C-4.687,-8.08 -5.419,-7.9 -6.073,-7.542C-6.433,-7.346 -6.741,-7.103 -7.017,-6.83L-7.017,-7.044C-7.017,-7.327 -7.103,-7.555 -7.275,-7.727C-7.448,-7.9 -7.677,-7.987 -7.96,-7.987C-8.23,-7.987 -8.456,-7.9 -8.635,-7.727C-8.813,-7.555 -8.902,-7.327 -8.902,-7.044L-8.902,1.204C-8.902,1.474 -8.813,1.699 -8.635,1.878C-8.456,2.056 -8.23,2.146 -7.96,2.146C-7.677,2.146 -7.448,2.056 -7.275,1.878C-7.103,1.699 -7.017,1.474 -7.017,1.204L-7.017,-4.011C-7.017,-4.467 -6.894,-4.871 -6.647,-5.222C-6.4,-5.574 -6.067,-5.854 -5.648,-6.064C-5.229,-6.274 -4.761,-6.377 -4.243,-6.377C-3.676,-6.377 -3.173,-6.27 -2.735,-6.055C-2.298,-5.839 -1.949,-5.509 -1.69,-5.065C-1.432,-4.622 -1.304,-4.048 -1.304,-3.345L-1.304,1.204C-1.304,1.474 -1.214,1.699 -1.035,1.878C-0.856,2.056 -0.631,2.146 -0.36,2.146C-0.089,2.146 0.137,2.056 0.315,1.878C0.494,1.699 0.583,1.474 0.583,1.204L0.583,-3.345C0.583,-4.369 0.39,-5.232 0,-5.934" style="fill:rgb(0,88,155);fill-rule:nonzero;"/>
                </g>
            </g>
        </g>
    </g>
    <defs>
        <linearGradient id="_Linear1" x1="0" y1="0" x2="1" y2="0" gradientUnits="userSpaceOnUse" gradientTransform="matrix(1,0,0,-1,0,-7.28682e-06)"><stop offset="0" style="stop-color:rgb(241,90,41);stop-opacity:1"/><stop offset="1" style="stop-color:rgb(237,124,33);stop-opacity:1"/><stop offset="1" style="stop-color:rgb(237,124,33);stop-opacity:1"/></linearGradient>
    </defs>
</svg>
