<svg xmlns="http://www.w3.org/2000/svg" xml:space="preserve" fill-rule="evenodd" stroke-linejoin="round" stroke-miterlimit="2" clip-rule="evenodd" viewBox="0 0 1589 290"><g fill-rule="nonzero"><path d="M474.985 196.639c-25.6 0-41.157-23.338-41.157-56.467 0-32.877 15.056-57.472 40.905-57.472 26.354 0 40.91 26.101 40.91 56.466 0 32.877-14.809 57.473-40.658 57.473m.753-144.31c-49.944 0-82.32 37.899-82.32 88.596 0 48.185 29.365 86.084 79.561 86.084 49.439 0 83.069-33.63 83.069-89.096 0-46.68-28.36-85.584-80.31-85.584m166.367 145.313c-11.04 0-19.826-7.78-22.337-18.067-.5-2.259-.753-5.022-.753-8.034v-16.814c0-2.259.253-4.77.753-6.776 2.511-11.292 12.05-19.326 22.838-19.326 17.067 0 25.853 14.809 25.853 34.387 0 20.827-9.791 34.63-26.354 34.63m14.056-98.882c-17.82 0-31.871 6.78-40.91 19.826h-.5l-1.758-17.062h-33.129c.505 11.292 1.005 25.095 1.005 41.157V273.94h38.146v-60.988h.505c5.523 8.028 17.063 14.055 31.872 14.055 27.354 0 55.714-21.083 55.714-65.753 0-39.152-24.091-62.494-50.945-62.494m104.634 50.195c1.006-10.288 7.533-24.848 23.595-24.848 17.563 0 21.58 15.566 21.58 24.848h-45.175Zm25.849-50.192c-42.663 0-61.989 34.382-61.989 65.501 0 38.399 23.843 62.742 65.501 62.742 16.567 0 31.876-2.759 44.421-7.777l-5.017-25.853c-10.292 3.264-20.831 5.022-33.877 5.022-17.82 0-33.382-7.533-34.635-23.342h79.051c.505-2.764 1.258-8.534 1.258-15.057 0-30.365-15.056-61.236-54.713-61.236m150.066-.001c-20.331 0-32.876 11.793-37.898 19.574h-.753l-1.758-16.815h-33.129c.505 10.792 1.005 23.843 1.005 39.152v83.573h38.151v-70.775c0-3.512.501-7.023 1.506-9.534 2.506-7.028 8.781-14.304 19.321-14.304 13.808 0 19.326 10.788 19.326 26.602v68.011h38.146v-72.781c0-36.14-18.821-52.703-43.917-52.703m119.19 53.958h62.242v-31.118H1055.9v-35.14h66.001V55.091h-104.4v169.157h107.917v-31.371H1055.9V152.72Zm150.56 9.035c-1.758 7.028-3.76 16.315-5.518 22.838h-.753c-1.505-6.523-4.016-15.562-6.027-22.838l-18.32-60.235h-42.411l44.922 112.185c1.505 3.012 1.758 5.022 1.758 6.275 0 1.754-.753 3.765-2.011 5.523-3.764 6.27-10.035 12.293-15.809 15.309-5.775 3.511-11.793 5.77-16.563 6.523l8.034 32.376c9.534-1.258 23.585-5.27 36.888-16.815 13.804-12.297 25.601-31.876 43.169-80.562l28.607-80.814h-40.91l-15.056 60.235Zm97.36-12.8c1.005-10.288 7.533-24.848 23.595-24.848 17.567 0 21.579 15.566 21.579 24.848h-45.174Zm25.853-50.192c-42.668 0-61.993 34.382-61.993 65.501 0 38.399 23.842 62.742 65.5 62.742 16.567 0 31.876-2.759 44.426-7.777l-5.021-25.853c-10.288 3.264-20.832 5.022-33.878 5.022-17.82 0-33.381-7.533-34.635-23.342h79.052c.505-2.764 1.258-8.534 1.258-15.057 0-30.365-15.057-61.236-54.709-61.236m124.967 50.443c-15.057-5.27-19.826-8.281-19.826-14.056 0-6.271 5.269-10.039 14.556-10.039 10.535 0 21.079 4.016 26.597 7.027l6.78-26.349c-7.528-3.764-20.331-7.027-34.635-7.027-30.366 0-49.944 17.315-49.944 40.404-.248 14.309 9.539 28.112 34.888 36.641 14.303 4.77 18.067 7.781 18.067 14.056 0 6.275-4.769 10.292-16.309 10.292-11.293 0-25.849-5.022-32.877-9.287l-6.78 27.355c9.286 5.017 23.595 8.786 39.657 8.786 35.135 0 53.203-17.067 53.203-39.905-.248-18.072-10.04-29.865-33.377-37.898M187.512 130.183l-31.118 30.967V71.421h31.118v58.762Z"/><path d="M211.352 117.081c8.57 9.443 13.794 21.979 13.794 35.737 0 29.379-23.815 53.194-53.194 53.194-29.374 0-53.189-23.815-53.189-53.194 0-13.758 5.224-26.294 13.794-35.737l-20.703-20.702c-13.858 14.758-22.364 34.598-22.364 56.439 0 45.546 36.921 82.467 82.462 82.467 45.546 0 82.467-36.921 82.467-82.467 0-21.841-8.506-41.681-22.369-56.439l-20.698 20.702Z"/><path d="M172.833 5.54c-92.309 0-143.942 68.305-162.85 122.582l25.179 6.675C51.954 93.768 94.645 31.154 172.833 31.154c78.184 0 120.88 62.614 137.672 103.643l25.173-6.675C316.771 73.845 265.142 5.54 172.833 5.54"/></g><path fill-rule="nonzero" d="M1528.31 54.959V44.233h6.826c.91 0 1.869.065 2.877.195 1.007.13 1.917.373 2.73.731a5.175 5.175 0 0 1 1.999 1.511c.52.65.78 1.528.78 2.633 0 2.47-.748 4.031-2.243 4.681-1.495.65-3.413.975-5.753.975h-7.216Zm-8.093-17.065v40.858h8.093V61.297h5.071l9.946 17.455h8.483l-10.921-17.845a17.144 17.144 0 0 0 4.193-.878c1.3-.455 2.438-1.105 3.413-1.95.975-.845 1.739-1.934 2.292-3.266.552-1.333.828-2.942.828-4.827 0-4.421-1.381-7.541-4.144-9.361-2.763-1.821-6.712-2.731-11.847-2.731h-15.407Zm-12.969 20.478c0-4.161.715-7.98 2.145-11.458 1.43-3.478 3.38-6.484 5.851-9.02 2.47-2.535 5.379-4.518 8.727-5.948 3.348-1.43 6.94-2.145 10.775-2.145 3.77 0 7.33.715 10.677 2.145 3.348 1.43 6.257 3.413 8.728 5.948 2.47 2.536 4.437 5.542 5.899 9.02 1.463 3.478 2.194 7.297 2.194 11.458 0 4.16-.731 7.996-2.194 11.506-1.462 3.51-3.429 6.55-5.899 9.117-2.471 2.568-5.38 4.567-8.728 5.997-3.347 1.431-6.907 2.146-10.677 2.146-3.835 0-7.427-.715-10.775-2.146-3.348-1.43-6.257-3.429-8.727-5.997-2.471-2.567-4.421-5.607-5.851-9.117-1.43-3.51-2.145-7.346-2.145-11.506Zm-9.946 0c0 5.59 1.023 10.628 3.071 15.114 2.048 4.486 4.795 8.321 8.24 11.506 3.445 3.186 7.427 5.624 11.945 7.314 4.518 1.69 9.247 2.535 14.188 2.535 4.941 0 9.67-.845 14.188-2.535 4.518-1.69 8.5-4.128 11.945-7.314 3.445-3.185 6.192-7.02 8.24-11.506 2.047-4.486 3.071-9.524 3.071-15.114 0-5.526-1.024-10.531-3.071-15.017-2.048-4.486-4.795-8.305-8.24-11.458-3.445-3.152-7.427-5.59-11.945-7.313-4.518-1.723-9.247-2.584-14.188-2.584-4.941 0-9.67.861-14.188 2.584-4.518 1.723-8.5 4.161-11.945 7.313-3.445 3.153-6.192 6.972-8.24 11.458s-3.071 9.491-3.071 15.017Z"/></svg>